<svg width="92" height="91" xmlns="http://www.w3.org/2000/svg" xmlns:xlink="http://www.w3.org/1999/xlink" xml:space="preserve" overflow="hidden"><g transform="translate(-604 -354)"><g><g><g><g><path d="M16.875 73.125 73.125 73.125 73.125 16.875 16.875 16.875 16.875 73.125ZM86.25 24.375 86.25 20.625 76.875 20.625 76.875 15C76.875 13.965 76.035 13.125 75 13.125L69.375 13.125 69.375 3.75 65.625 3.75 65.625 13.125 58.125 13.125 58.125 3.75 54.375 3.75 54.375 13.125 46.875 13.125 46.875 3.75 43.125 3.75 43.125 13.125 35.625 13.125 35.625 3.75 31.875 3.75 31.875 13.125 24.375 13.125 24.375 3.75 20.625 3.75 20.625 13.125 15 13.125C13.9631 13.125 13.125 13.965 13.125 15L13.125 20.625 3.75 20.625 3.75 24.375 13.125 24.375 13.125 31.875 3.75 31.875 3.75 35.625 13.125 35.625 13.125 43.125 3.75 43.125 3.75 46.875 13.125 46.875 13.125 54.375 3.75 54.375 3.75 58.125 13.125 58.125 13.125 65.625 3.75 65.625 3.75 69.375 13.125 69.375 13.125 75C13.125 76.0369 13.9631 76.875 15 76.875L20.625 76.875 20.625 86.25 24.375 86.25 24.375 76.875 31.875 76.875 31.875 86.25 35.625 86.25 35.625 76.875 43.125 76.875 43.125 86.25 46.875 86.25 46.875 76.875 54.375 76.875 54.375 86.25 58.125 86.25 58.125 76.875 65.625 76.875 65.625 86.25 69.375 86.25 69.375 76.875 75 76.875C76.035 76.875 76.875 76.0369 76.875 75L76.875 69.375 86.25 69.375 86.25 65.625 76.875 65.625 76.875 58.125 86.25 58.125 86.25 54.375 76.875 54.375 76.875 46.875 86.25 46.875 86.25 43.125 76.875 43.125 76.875 35.625 86.25 35.625 86.25 31.875 76.875 31.875 76.875 24.375 86.25 24.375Z" fill="#ED7100" fill-rule="evenodd" fill-opacity="1" transform="matrix(1.01111 0 0 1 605 355)"/></g></g></g></g></g></svg>