<svg width="82" height="81" xmlns="http://www.w3.org/2000/svg" xmlns:xlink="http://www.w3.org/1999/xlink" xml:space="preserve" overflow="hidden"><g transform="translate(-422 -313)"><g><g><g><g><path d="M423 314 503 314 503 394 423 394Z" fill="#DD344C" fill-rule="evenodd" fill-opacity="1"/><path d="M437 373 489 373 489 335 437 335 437 373ZM491 334 491 374C491 374.552 490.553 375 490 375L436 375C435.447 375 435 374.552 435 374L435 334C435 333.448 435.447 333 436 333L490 333C490.553 333 491 333.448 491 334ZM467 362 482 362 482 360 467 360 467 362ZM480 356 485 356 485 354 480 354 480 356ZM467 356 475 356 475 354 467 354 467 356ZM452 360C452 359.449 451.552 359 451 359 450.448 359 450 359.449 450 360 450 360.551 450.448 361 451 361 451.552 361 452 360.551 452 360ZM454 360C454 361.302 453.161 362.401 452 362.816L452 365 450 365 450 362.815C448.839 362.401 448 361.302 448 360 448 358.346 449.346 357 451 357 452.654 357 454 358.346 454 360ZM442 367.993 459.994 368 459.996 364 456 364 456 362 459.996 362 459.998 359 456 359 456 357 459.999 357 460 354.007 442.006 354 442 367.993ZM445 352.001 457 352.006 457 345C457.001 342.697 454.197 340.677 451 340.675L450.996 340.675C447.804 340.675 445.004 342.696 445.002 345L445 352.001ZM440 368.992 440.006 353C440.006 352.734 440.111 352.48 440.299 352.292 440.486 352.105 440.741 352 441.006 352L443 352.001 443.002 345C443.004 341.512 446.59 338.675 450.996 338.675L451 338.675C455.412 338.677 459.001 341.515 459 345L459 352.007 461 352.008C461.553 352.008 462 352.456 462 353.008L461.994 369C461.994 369.266 461.889 369.52 461.701 369.708 461.514 369.895 461.259 370 460.994 370L441 369.992C440.447 369.992 440 369.544 440 368.992ZM483 350 485 350 485 348 483 348 483 350ZM467 350 478 350 478 348 467 348 467 350Z" fill="#FFFFFF" fill-rule="evenodd" fill-opacity="1"/></g></g></g></g></g></svg>