<svg width="81" height="81" xmlns="http://www.w3.org/2000/svg" xmlns:xlink="http://www.w3.org/1999/xlink" xml:space="preserve" overflow="hidden"><g transform="translate(-797 -145)"><g><g><g><g><path d="M798 146 878 146 878 226 798 226Z" fill="#DD344C" fill-rule="evenodd" fill-opacity="1"/><path d="M814.964 181.808 827.869 181.808 827.869 179.825 814.964 179.825 814.964 181.808ZM859.375 196.231 860.779 197.633 853.407 204.994C853.213 205.187 852.959 205.284 852.706 205.284 852.451 205.284 852.197 205.187 852.004 204.994L848.295 201.291 849.699 199.89 852.706 202.891 859.375 196.231ZM863.944 201.694C863.718 203.557 862.959 205.291 861.747 206.709 860.886 207.716 859.799 208.548 858.604 209.115 857.001 209.876 855.22 210.164 853.446 209.948 851.721 209.738 850.095 209.058 848.74 207.982 846.137 205.916 844.822 202.711 845.222 199.409 845.601 196.288 847.492 193.566 850.28 192.127 851.617 191.438 853.08 191.084 854.57 191.084 854.952 191.084 855.337 191.108 855.721 191.155 858.834 191.534 861.55 193.436 862.981 196.243 863.84 197.926 864.172 199.811 863.944 201.694ZM864.75 195.344C863.018 191.948 859.732 189.646 855.962 189.187 853.681 188.908 851.403 189.317 849.369 190.366 845.996 192.106 843.708 195.398 843.251 199.171 842.768 203.161 844.358 207.036 847.505 209.535 849.146 210.837 851.117 211.661 853.205 211.916 853.667 211.972 854.13 212 854.592 212 856.271 212 857.93 211.629 859.456 210.906 860.902 210.22 862.218 209.213 863.257 207.995 864.723 206.28 865.643 204.184 865.916 201.932 866.192 199.657 865.788 197.379 864.75 195.344ZM824.891 187.755 828.862 187.755 828.862 185.773 824.891 185.773 824.891 187.755ZM814.964 187.755 822.905 187.755 822.905 185.773 814.964 185.773 814.964 187.755ZM814.106 161.982 858.508 161.982C859.677 161.982 860.628 163.139 860.628 164.561L860.628 171.895 857.65 171.895 857.65 166.939C857.65 166.392 857.206 165.948 856.657 165.948L833.825 165.948C833.276 165.948 832.832 166.392 832.832 166.939L832.832 171.895 811.985 171.895 811.985 164.561C811.985 163.163 812.957 161.982 814.106 161.982ZM845.256 171.608C847.561 171.608 849.437 173.461 849.437 175.739 849.437 177.241 848.608 178.623 847.273 179.347 846.007 180.034 844.48 180.025 843.23 179.348 841.901 178.622 841.076 177.24 841.076 175.739 841.076 173.461 842.95 171.608 845.256 171.608ZM811.985 193.108 811.985 173.878 832.832 173.878 832.832 190.729C832.832 191.277 833.276 191.721 833.825 191.721L844.203 191.721 844.203 189.738 835.912 189.738C835.998 185.771 838.636 182.344 842.434 181.25 844.189 182.07 846.285 182.077 848.067 181.249 850.229 181.873 852.121 183.318 853.293 185.254L854.992 184.227C853.789 182.243 851.963 180.695 849.846 179.795 850.838 178.694 851.422 177.263 851.422 175.739 851.422 172.368 848.655 169.625 845.256 169.625 841.856 169.625 839.09 172.368 839.09 175.739 839.09 177.257 839.668 178.683 840.654 179.784 838 180.9 835.928 182.992 834.818 185.573L834.818 167.93 855.665 167.93 855.665 183.79 857.65 183.79 857.65 173.878 860.628 173.878 860.629 188.747 862.615 188.747 862.614 164.561C862.614 162.046 860.772 160 858.508 160L814.106 160C811.841 160 810 162.046 810 164.561L810 193.108C810 195.623 811.841 197.668 814.106 197.668L840.774 197.668 840.774 195.686 814.106 195.686C812.957 195.686 811.985 194.506 811.985 193.108Z" fill="#FFFFFF" fill-rule="evenodd" fill-opacity="1"/></g></g></g></g></g></svg>