<svg width="81" height="81" xmlns="http://www.w3.org/2000/svg" xmlns:xlink="http://www.w3.org/1999/xlink" xml:space="preserve" overflow="hidden"><g transform="translate(-777 -365)"><g><g><g><g><path d="M778 366 858 366 858 446 778 446Z" fill="#ED7100" fill-rule="evenodd" fill-opacity="1"/><path d="M805 419 830 419 830 394 805 394 805 419ZM832 394 836 394 836 396 832 396 832 400 836 400 836 402 832 402 832 405 836 405 836 407 832 407 832 411 836 411 836 413 832 413 832 417 836 417 836 419 832 419 832 419.136C832 420.164 831.164 421 830.136 421L830 421 830 425 828 425 828 421 824 421 824 425 822 425 822 421 819 421 819 425 817 425 817 421 813 421 813 425 811 425 811 421 807 421 807 425 805 425 805 421 804.864 421C803.836 421 803 420.164 803 419.136L803 419 800 419 800 417 803 417 803 413 800 413 800 411 803 411 803 407 800 407 800 405 803 405 803 402 800 402 800 400 803 400 803 396 800 396 800 394 803 394 803 393.864C803 392.836 803.836 392 804.864 392L805 392 805 388 807 388 807 392 811 392 811 388 813 388 813 392 817 392 817 388 819 388 819 392 822 392 822 388 824 388 824 392 828 392 828 388 830 388 830 392 830.136 392C831.164 392 832 392.836 832 393.864L832 394ZM819 431.876C819 431.944 818.944 432 818.876 432L792.124 432C792.056 432 792 431.944 792 431.876L792 405.124C792 405.056 792.056 405 792.124 405L798 405 798 403 792.124 403C790.953 403 790 403.953 790 405.124L790 431.876C790 433.047 790.953 434 792.124 434L818.876 434C820.047 434 821 433.047 821 431.876L821 427 819 427 819 431.876ZM846 380.124 846 406.876C846 408.047 845.047 409 843.876 409L838 409 838 407 843.876 407C843.944 407 844 406.944 844 406.876L844 380.124C844 380.056 843.944 380 843.876 380L817.124 380C817.056 380 817 380.056 817 380.124L817 386 815 386 815 380.124C815 378.953 815.953 378 817.124 378L843.876 378C845.047 378 846 378.953 846 380.124Z" fill="#FFFFFF" fill-rule="evenodd" fill-opacity="1"/></g></g></g></g></g></svg>