<svg width="50" height="48" xmlns="http://www.w3.org/2000/svg" xmlns:xlink="http://www.w3.org/1999/xlink" xml:space="preserve" overflow="hidden"><g transform="translate(-526 -324)"><g><g><g><g><path d="M570.95 365.723C570.641 365.743 570.286 365.765 569.905 365.786L569.639 365.81C568.098 365.958 566.397 366.071 565.46 365.797L564.95 365.669C564.508 365.53 564.057 365.34 563.549 365.124 562.147 364.53 560.39 363.795 558.401 363.839L558.35 361.84C560.791 361.765 562.834 362.649 564.33 363.284 564.774 363.472 565.166 363.64 565.5 363.747L565.985 363.868C566.09 363.898 566.249 363.924 566.467 363.942L566.416 363.731C565.336 359.383 561.271 356.23 556.533 356.071 554.577 356 552.673 356.447 550.994 357.351 548.515 359.159 547.039 361.886 546.938 364.842 546.937 364.897 546.935 365.026 546.934 365.169 547.886 365.768 549.103 366.147 550.423 366.259 553.075 365.138 556.975 364.901 559.143 365.141 560.812 365.326 562.609 366.178 564.053 366.863 564.841 367.237 565.655 367.623 566.054 367.694 566.714 367.807 568.17 367.708 569.453 367.619L569.59 367.61C569.998 367.579 570.404 367.555 570.791 367.536 570.823 367.535 570.855 367.533 570.888 367.531L570.95 365.723ZM546.513 367.826C546.823 367.779 547.131 367.708 547.433 367.629 546.615 367.32 545.869 366.916 545.236 366.423 544.749 366.641 544.253 366.848 543.763 367.043 543.328 367.216 542.756 367.443 542.333 367.646 543.016 367.89 544.236 368.056 545.847 367.894L546.513 367.826ZM558.746 353.204C556.744 353.141 554.782 353.581 553.023 354.456 554.181 354.171 555.383 354.035 556.6 354.072 562.227 354.261 567.062 358.037 568.358 363.255L568.514 363.898C568.798 363.877 569.102 363.852 569.449 363.819 569.624 363.803 569.747 363.792 569.801 363.789 569.94 363.781 570.069 363.773 570.202 363.765 569.533 357.966 564.678 353.404 558.746 353.204ZM572.967 365.242 572.872 368.058C572.846 368.844 572.209 369.482 571.421 369.51 571.194 369.518 571.051 369.523 570.907 369.533 570.515 369.552 570.127 369.576 569.731 369.604L569.591 369.614C568.057 369.72 566.612 369.819 565.711 369.664 565.04 369.545 564.226 369.159 563.196 368.67 561.887 368.049 560.259 367.277 558.924 367.129 556.597 366.869 552.185 367.296 550.295 368.573 549.293 369.254 547.573 369.785 546.019 369.892L545.788 369.908C545.677 369.917 545.553 369.926 545.416 369.933L545.268 369.944 545.267 369.941C545.064 369.951 544.839 369.957 544.599 369.957 543.193 369.957 541.293 369.744 540.327 368.71 539.826 368.175 539.855 367.631 539.917 367.355 540.147 366.328 541.353 365.848 543.024 365.184 543.493 364.998 543.963 364.802 544.414 364.6 544.577 360.419 546.575 356.573 549.909 354.04 552.447 352.105 555.613 351.095 558.812 351.205 565.859 351.443 571.596 356.953 572.216 363.891 572.321 363.952 572.421 364.021 572.51 364.107 572.815 364.402 572.982 364.816 572.967 365.242ZM547 347 550 347 550 344 547 344 547 347ZM552 343 552 348C552 348.552 551.553 349 551 349L546 349C545.447 349 545 348.552 545 348L545 343C545 342.448 545.447 342 546 342L551 342C551.553 342 552 342.448 552 343ZM537 347 540 347 540 344 537 344 537 347ZM542 343 542 348C542 348.552 541.553 349 541 349L536 349C535.447 349 535 348.552 535 348L535 343C535 342.448 535.447 342 536 342L541 342C541.553 342 542 342.448 542 343ZM547 337 550 337 550 334 547 334 547 337ZM552 338C552 338.552 551.553 339 551 339L546 339C545.447 339 545 338.552 545 338L545 333C545 332.448 545.447 332 546 332L551 332C551.553 332 552 332.448 552 333L552 338ZM537 337 540 337 540 334 537 334 537 337ZM542 338C542 338.552 541.553 339 541 339L536 339C535.447 339 535 338.552 535 338L535 333C535 332.448 535.447 332 536 332L541 332C541.553 332 542 332.448 542 333L542 338ZM547 355 539 355C538.448 355 538 355.449 538 356L538 370 537 370 536 370 531.333 370C530.047 370 529 369.082 529 367.955L529 328.045C529 326.917 530.047 326 531.333 326L555.667 326C556.953 326 558 326.917 558 328.045L558 349 556 349 556 328.045C555.994 328.083 555.874 328 555.667 328L531.333 328C531.128 328 531.005 328.085 530.982 328.116L531 367.955C531.004 367.914 531.125 368 531.333 368L536 368 536 356C536 354.346 537.346 353 539 353L547 353 547 355Z" fill="#DD344C" fill-rule="evenodd" fill-opacity="1"/></g></g></g></g></g></svg>