<svg width="81" height="81" xmlns="http://www.w3.org/2000/svg" xmlns:xlink="http://www.w3.org/1999/xlink" xml:space="preserve" overflow="hidden"><g transform="translate(-448 -337)"><g><g><g><g><path d="M449 338 529 338 529 418 449 418Z" fill="#C925D1" fill-rule="evenodd" fill-opacity="1"/><path d="M464.414 352 473.707 361.293 472.293 362.707 463 353.414 463 361 461 361 461 351C461 350.448 461.447 350 462 350L472 350 472 352 464.414 352ZM517 351 517 361 515 361 515 353.414 505.707 362.707 504.293 361.293 513.586 352 506 352 506 350 516 350C516.553 350 517 350.448 517 351ZM515 395 517 395 517 405C517 405.552 516.553 406 516 406L506 406 506 404 513.586 404 504.293 394.707 505.707 393.293 515 402.586 515 395ZM514.5 377.213C514.5 373.894 510.668 370.615 504.25 368.442L504.891 366.548C512.268 369.045 516.5 372.932 516.5 377.213 516.5 381.495 512.268 385.383 504.89 387.879L504.249 385.984C510.668 383.812 514.5 380.534 514.5 377.213ZM463.556 377.213C463.556 380.393 467.143 383.585 473.152 385.753L472.473 387.634C465.535 385.131 461.556 381.333 461.556 377.213 461.556 373.094 465.535 369.296 472.473 366.792L473.152 368.673C467.143 370.842 463.556 374.034 463.556 377.213ZM473.707 394.707 464.414 404 472 404 472 406 462 406C461.447 406 461 405.552 461 405L461 395 463 395 463 402.586 472.293 393.293 473.707 394.707ZM489 369.286C481.854 369.286 478 367.44 478 366.686 478 365.931 481.854 364.086 489 364.086 496.145 364.086 500 365.931 500 366.686 500 367.44 496.145 369.286 489 369.286ZM489.029 377.031C482.187 377.031 478 375.162 478 374.145L478 369.284C480.463 370.643 484.832 371.286 489 371.286 493.168 371.286 497.537 370.643 500 369.284L500 374.145C500 375.163 495.835 377.031 489.029 377.031ZM489.029 384.667C482.187 384.667 478 382.798 478 381.781L478 376.862C480.431 378.291 484.742 379.031 489.029 379.031 493.292 379.031 497.578 378.292 500 376.867L500 381.781C500 382.799 495.835 384.667 489.029 384.667ZM489 391.518C481.883 391.518 478 389.605 478 388.622L478 384.498C480.431 385.927 484.742 386.667 489.029 386.667 493.292 386.667 497.578 385.929 500 384.503L500 388.622C500 389.605 496.117 391.518 489 391.518ZM489 362.086C482.739 362.086 476 363.525 476 366.686L476 388.622C476 391.836 482.54 393.518 489 393.518 495.46 393.518 502 391.836 502 388.622L502 366.686C502 363.525 495.261 362.086 489 362.086Z" fill="#FFFFFF" fill-rule="evenodd" fill-opacity="1"/></g></g></g></g></g></svg>