<svg width="82" height="81" xmlns="http://www.w3.org/2000/svg" xmlns:xlink="http://www.w3.org/1999/xlink" xml:space="preserve" overflow="hidden"><g transform="translate(-598 -308)"><g><g><g><g><path d="M599 309 679 309 679 389 599 389Z" fill="#DD344C" fill-rule="evenodd" fill-opacity="1"/><path d="M643.17 350.245C643.17 350.417 643.122 354.084 640.17 354.771L640.17 343.786 643.17 345.086 643.17 350.245ZM635.17 350.229 635.17 345.086 638.17 343.786 638.17 354.774C635.295 354.114 635.173 350.659 635.17 350.229ZM644.567 343.512 639.567 341.345C639.314 341.235 639.026 341.235 638.773 341.345L633.773 343.512C633.406 343.67 633.17 344.031 633.17 344.43L633.17 350.229C633.17 352.534 634.424 356.892 639.17 356.892 643.916 356.892 645.17 352.544 645.17 350.245L645.17 344.43C645.17 344.031 644.934 343.67 644.567 343.512ZM657.99 363.174C656.213 363.174 654.768 361.729 654.768 359.952 654.768 358.175 656.213 356.729 657.99 356.729 659.768 356.729 661.213 358.175 661.213 359.952 661.213 361.729 659.768 363.174 657.99 363.174ZM639.267 358.952C633.74 358.952 629.244 354.456 629.244 348.93 629.244 343.403 633.74 338.907 639.267 338.907 644.793 338.907 649.289 343.403 649.289 348.93 649.289 354.456 644.793 358.952 639.267 358.952ZM642.508 370.809C642.508 372.586 641.063 374.032 639.285 374.032 637.508 374.032 636.063 372.586 636.063 370.809 636.063 369.033 637.508 367.587 639.285 367.587 641.063 367.587 642.508 369.033 642.508 370.809ZM636.125 326.222C636.125 324.445 637.57 323 639.348 323 641.124 323 642.569 324.445 642.569 326.222 642.569 327.999 641.124 329.445 639.348 329.445 637.57 329.445 636.125 327.999 636.125 326.222ZM620.223 361.956C618.445 361.956 617 360.511 617 358.734 617 356.957 618.445 355.512 620.223 355.512 621.999 355.512 623.444 356.957 623.444 358.734 623.444 360.511 621.999 361.956 620.223 361.956ZM621.32 340.87C619.543 340.87 618.098 339.425 618.098 337.648 618.098 335.871 619.543 334.425 621.32 334.425 623.097 334.425 624.542 335.871 624.542 337.648 624.542 339.425 623.097 340.87 621.32 340.87ZM658.117 333.633C659.895 333.633 661.34 335.078 661.34 336.855 661.34 338.632 659.895 340.078 658.117 340.078 656.341 340.078 654.896 338.632 654.896 336.855 654.896 335.078 656.341 333.633 658.117 333.633ZM657.99 354.729C656.545 354.729 655.235 355.321 654.289 356.273L650.323 353.645C650.943 352.196 651.289 350.603 651.289 348.93 651.289 346.741 650.691 344.694 649.666 342.925L654.204 340.276C655.162 341.371 656.552 342.078 658.117 342.078 660.997 342.078 663.34 339.735 663.34 336.855 663.34 333.975 660.997 331.633 658.117 331.633 655.238 331.633 652.896 333.975 652.896 336.855 652.896 337.45 653.017 338.013 653.201 338.546L648.528 341.273C646.522 338.85 643.582 337.233 640.267 336.958L640.267 331.352C642.707 330.915 644.569 328.787 644.569 326.222 644.569 323.343 642.227 321 639.348 321 636.468 321 634.125 323.343 634.125 326.222 634.125 328.731 635.904 330.829 638.267 331.329L638.267 336.958C634.717 337.252 631.608 339.095 629.604 341.807L626.166 339.566C626.402 338.971 626.542 338.327 626.542 337.648 626.542 334.768 624.199 332.425 621.32 332.425 618.441 332.425 616.098 334.768 616.098 337.648 616.098 340.528 618.441 342.87 621.32 342.87 622.802 342.87 624.134 342.244 625.085 341.249L628.551 343.509C627.722 345.14 627.244 346.978 627.244 348.93 627.244 350.416 627.528 351.834 628.024 353.15L624.163 355.346C623.205 354.233 621.803 353.512 620.223 353.512 617.343 353.512 615 355.854 615 358.734 615 361.614 617.343 363.956 620.223 363.956 623.102 363.956 625.444 361.614 625.444 358.734 625.444 358.154 625.327 357.606 625.152 357.084L628.884 354.961C630.813 358.27 634.27 360.576 638.285 360.902L638.285 365.688C635.883 366.156 634.063 368.272 634.063 370.809 634.063 373.689 636.405 376.032 639.285 376.032 642.165 376.032 644.508 373.689 644.508 370.809 644.508 368.272 642.688 366.156 640.285 365.688L640.285 360.9C644.1 360.578 647.406 358.471 649.374 355.415L653.175 357.934C652.913 358.555 652.768 359.237 652.768 359.952 652.768 362.831 655.11 365.174 657.99 365.174 660.87 365.174 663.213 362.831 663.213 359.952 663.213 357.072 660.87 354.729 657.99 354.729Z" fill="#FFFFFF" fill-rule="evenodd" fill-opacity="1"/></g></g></g></g></g></svg>