<svg width="91" height="91" xmlns="http://www.w3.org/2000/svg" xmlns:xlink="http://www.w3.org/1999/xlink" xml:space="preserve" overflow="hidden"><g transform="translate(-514 -354)"><g><g><g><g><path d="M515 355 605 355 605 445 515 445Z" fill="#ED7100" fill-rule="evenodd" fill-opacity="1"/><path d="M537.5 420.25 580.25 420.25 580.25 377.5 537.5 377.5 537.5 420.25ZM589.25 382 589.25 379.75 582.5 379.75 582.5 376.375C582.5 375.754 581.996 375.25 581.375 375.25L578 375.25 578 368.5 575.75 368.5 575.75 375.25 569 375.25 569 368.5 566.75 368.5 566.75 375.25 560 375.25 560 368.5 557.75 368.5 557.75 375.25 551 375.25 551 368.5 548.75 368.5 548.75 375.25 542 375.25 542 368.5 539.75 368.5 539.75 375.25 536.375 375.25C535.754 375.25 535.25 375.754 535.25 376.375L535.25 379.75 528.5 379.75 528.5 382 535.25 382 535.25 388.75 528.5 388.75 528.5 391 535.25 391 535.25 397.75 528.5 397.75 528.5 400 535.25 400 535.25 406.75 528.5 406.75 528.5 409 535.25 409 535.25 415.75 528.5 415.75 528.5 418 535.25 418 535.25 421.375C535.25 421.996 535.754 422.5 536.375 422.5L539.75 422.5 539.75 429.25 542 429.25 542 422.5 548.75 422.5 548.75 429.25 551 429.25 551 422.5 557.75 422.5 557.75 429.25 560 429.25 560 422.5 566.75 422.5 566.75 429.25 569 429.25 569 422.5 575.75 422.5 575.75 429.25 578 429.25 578 422.5 581.375 422.5C581.996 422.5 582.5 421.996 582.5 421.375L582.5 418 589.25 418 589.25 415.75 582.5 415.75 582.5 409 589.25 409 589.25 406.75 582.5 406.75 582.5 400 589.25 400 589.25 397.75 582.5 397.75 582.5 391 589.25 391 589.25 388.75 582.5 388.75 582.5 382 589.25 382Z" fill="#FFFFFF" fill-rule="evenodd" fill-opacity="1"/></g></g></g></g></g></svg>