<svg width="81" height="81" xmlns="http://www.w3.org/2000/svg" xmlns:xlink="http://www.w3.org/1999/xlink" xml:space="preserve" overflow="hidden"><g transform="translate(-552 -337)"><g><g><g><g><path d="M553 338 633 338 633 418 553 418Z" fill="#7AA116" fill-rule="evenodd" fill-opacity="1"/><path d="M613.836 380.893 614.22 378.189C617.761 380.31 617.807 381.186 617.806 381.21 617.8 381.215 617.196 381.719 613.836 380.893ZM611.893 380.353C605.773 378.501 597.25 374.591 593.801 372.961 593.801 372.947 593.805 372.934 593.805 372.92 593.805 371.595 592.727 370.517 591.401 370.517 590.077 370.517 588.999 371.595 588.999 372.92 588.999 374.245 590.077 375.323 591.401 375.323 591.983 375.323 592.511 375.106 592.928 374.761 596.986 376.682 605.443 380.535 611.608 382.355L609.17 399.561C609.163 399.608 609.16 399.655 609.16 399.702 609.16 401.217 602.453 404 591.494 404 580.419 404 573.641 401.217 573.641 399.702 573.641 399.656 573.638 399.611 573.632 399.566L568.538 362.359C572.947 365.394 582.43 367 591.5 367 600.556 367 610.023 365.4 614.441 362.374L611.893 380.353ZM568 358.478C568.072 357.162 575.634 352 591.5 352 607.364 352 614.927 357.161 615 358.478L615 358.927C614.13 361.878 604.33 365 591.5 365 578.648 365 568.843 361.868 568 358.913L568 358.478ZM617 358.5C617 355.035 607.066 350 591.5 350 575.934 350 566 355.035 566 358.5L566.094 359.254 571.642 399.778C571.775 404.31 583.861 406 591.494 406 600.966 406 611.029 403.822 611.159 399.781L613.555 382.884C614.888 383.203 615.985 383.366 616.866 383.366 618.049 383.366 618.849 383.077 619.334 382.499 619.732 382.025 619.884 381.451 619.77 380.84 619.511 379.456 617.868 377.964 614.522 376.055L616.898 359.293 617 358.5Z" fill="#FFFFFF" fill-rule="evenodd" fill-opacity="1"/></g></g></g></g></g></svg>