<svg width="80" height="81" xmlns="http://www.w3.org/2000/svg" xmlns:xlink="http://www.w3.org/1999/xlink" xml:space="preserve" overflow="hidden"><g transform="translate(-656 -341)"><g><g><g><g><path d="M656 342 736 342 736 422 656 422Z" fill="#C925D1" fill-rule="evenodd" fill-opacity="1"/><path d="M708.086 396.85C704.748 399.549 697.745 400.975 691.044 400.975 684.342 400.975 677.337 399.548 674 396.849L674 402.284 674.001 402.284C674.001 404.995 681 408.016 691.044 408.016 701.08 408.016 708.075 404.999 708.086 402.29L708.086 396.85ZM708.087 386.522 710.087 386.511 710.087 386.522C710.087 387.73 709.482 388.858 708.304 389.891 709.732 391.147 710.087 392.38 710.087 393.258 710.087 393.264 710.086 393.269 710.086 393.275L710.086 402.284 710.087 402.284C710.087 407.295 700.275 410 691.044 410 681.835 410 672.05 407.307 672.003 402.319 672.003 402.314 672 402.309 672 402.304L672 393.255C672 393.253 672.002 393.25 672.002 393.247 672.005 392.369 672.361 391.141 673.787 389.888 672.37 388.636 672.01 387.415 672.001 386.544L672.002 386.544C672.002 386.54 672 386.537 672 386.533L672 377.484C672 377.481 672.002 377.478 672.002 377.475 672.005 376.597 672.362 375.369 673.788 374.117 672.37 372.865 672.01 371.643 672.001 370.773L672.002 370.773C672.002 370.769 672 370.765 672 370.761L672 361.712C672 361.71 672.002 361.707 672.002 361.704 672.019 356.7 681.82 354 691.044 354 696.255 354 701.261 354.828 704.778 356.272L704.013 358.105C700.73 356.757 696.003 355.984 691.044 355.984 681 355.984 674.001 359.005 674.001 361.717 674.001 364.429 681 367.45 691.044 367.45 691.315 367.453 691.58 367.45 691.848 367.44L691.932 369.422C691.636 369.434 691.34 369.434 691.044 369.434 684.342 369.434 677.337 368.007 674 365.308L674 370.74 674.001 370.74 674.001 370.763C674.011 371.803 675.078 372.712 675.972 373.289 678.662 375.004 683.482 376.175 688.857 376.418L688.766 378.4C683.321 378.153 678.553 377.023 675.484 375.292 674.728 375.857 674.001 376.622 674.001 377.489 674.001 380.2 681 383.221 691.044 383.221 692.029 383.221 693.007 383.189 693.952 383.123L694.091 385.102C693.101 385.17 692.075 385.205 691.044 385.205 684.342 385.205 677.337 383.778 674 381.079L674 386.511 674.001 386.511C674.011 387.575 675.078 388.482 675.972 389.06 679.048 391.023 684.824 392.245 691.044 392.245L691.484 392.245 691.484 394.229 691.044 394.229C684.725 394.229 678.982 393.056 675.47 391.073 674.718 391.637 674.001 392.398 674.001 393.258 674.001 395.97 681 398.992 691.044 398.992 701.08 398.992 708.075 395.974 708.086 393.265L708.086 393.255 708.086 393.254C708.084 392.392 707.364 391.631 706.61 391.067 706.122 391.344 705.599 391.61 705.004 391.855L704.238 390.022C704.964 389.724 705.594 389.402 706.111 389.062 707.013 388.474 708.087 387.555 708.087 386.522ZM716.653 372.017 711.049 372.017C710.718 372.017 710.407 371.854 710.222 371.582 710.035 371.31 709.997 370.964 710.119 370.66L713.528 362.138 700.619 362.138 694.619 374.04 701.001 374.04C701.32 374.04 701.62 374.192 701.809 374.447 701.996 374.703 702.051 375.031 701.954 375.333L696.258 393.089 716.653 372.017ZM719.722 371.712 694.723 397.54C694.528 397.74 694.266 397.844 694.001 397.844 693.825 397.844 693.648 397.799 693.49 397.705 693.09 397.469 692.907 396.992 693.048 396.552L699.634 376.024 693.001 376.024C692.654 376.024 692.333 375.846 692.15 375.554 691.968 375.261 691.951 374.896 692.107 374.589L699.107 360.703C699.276 360.367 699.622 360.154 700.001 360.154L715.001 360.154C715.332 360.154 715.643 360.318 715.828 360.589 716.015 360.862 716.053 361.207 715.931 361.512L712.522 370.033 719 370.033C719.4 370.033 719.763 370.271 719.92 370.636 720.077 371.002 719.999 371.426 719.722 371.712ZM675.455 402.674C676.872 403.473 678.656 404.144 680.757 404.668L681.245 402.744C679.346 402.271 677.686 401.65 676.443 400.949L675.455 402.674ZM680.757 388.798 681.245 386.875C679.346 386.401 677.686 385.78 676.443 385.08L675.455 386.805C676.872 387.603 678.655 388.275 680.757 388.798ZM675.455 370.936 676.443 369.211C677.684 369.911 679.345 370.531 681.245 371.006L680.757 372.929C678.653 372.405 676.87 371.733 675.455 370.936Z" fill="#FFFFFF" fill-rule="evenodd" fill-opacity="1"/></g></g></g></g></g></svg>