<svg width="82" height="81" xmlns="http://www.w3.org/2000/svg" xmlns:xlink="http://www.w3.org/1999/xlink" xml:space="preserve" overflow="hidden"><g transform="translate(-702 -316)"><g><g><g><g><path d="M703 317 783 317 783 397 703 397Z" fill="#DD344C" fill-rule="evenodd" fill-opacity="1"/><path d="M754.997 369.496 761.997 369.496 761.997 367.496 754.997 367.496 754.997 369.496ZM745.997 369.496 752.997 369.496 752.997 367.496 745.997 367.496 745.997 369.496ZM736.997 369.496 743.997 369.496 743.997 367.496 736.997 367.496 736.997 369.496ZM747.997 361.496C747.997 360.393 748.895 359.496 749.997 359.496 751.1 359.496 751.997 360.393 751.997 361.496 751.997 362.599 751.1 363.496 749.997 363.496 748.895 363.496 747.997 362.599 747.997 361.496ZM753.997 361.496C753.997 359.29 752.204 357.496 749.997 357.496 747.791 357.496 745.997 359.29 745.997 361.496 745.997 363.702 747.791 365.496 749.997 365.496 752.204 365.496 753.997 363.702 753.997 361.496ZM739.997 359.496C741.1 359.496 741.997 360.393 741.997 361.496 741.997 362.599 741.1 363.496 739.997 363.496 738.895 363.496 737.997 362.599 737.997 361.496 737.997 360.393 738.895 359.496 739.997 359.496ZM739.997 365.496C742.204 365.496 743.997 363.702 743.997 361.496 743.997 359.29 742.204 357.496 739.997 357.496 737.791 357.496 735.997 359.29 735.997 361.496 735.997 363.702 737.791 365.496 739.997 365.496ZM768.997 350.496 768.997 373.496C768.997 374.048 768.55 374.496 767.997 374.496L736.997 374.496 736.997 372.496 766.997 372.496 766.997 351.496 744.997 351.496 744.997 349.496 767.997 349.496C768.55 349.496 768.997 349.944 768.997 350.496ZM733.696 355.543C733.28 355.674 732.997 356.06 732.997 356.496L732.997 377.536 730.598 379.593 727.997 376.62 727.997 373.996C727.997 373.731 727.892 373.476 727.704 373.289L725.412 370.996 727.704 368.703C727.892 368.516 727.997 368.261 727.997 367.996L727.997 365.996C727.997 365.731 727.892 365.476 727.704 365.289L725.412 362.996 727.704 360.703C727.892 360.516 727.997 360.261 727.997 359.996L727.997 356.506C727.997 356.07 727.715 355.684 727.299 355.553 722.157 353.923 719.117 348.634 720.23 343.249 721.032 339.369 724.016 336.258 727.831 335.323 731.08 334.526 734.412 335.223 736.972 337.23 739.53 339.237 740.997 342.25 740.997 345.496 740.997 350.049 737.995 354.181 733.696 355.543ZM742.997 345.496C742.997 341.632 741.251 338.045 738.206 335.656 735.161 333.267 731.209 332.436 727.355 333.381 722.794 334.498 719.229 338.213 718.271 342.844L718.271 342.845C717.001 348.99 720.3 355.034 725.997 357.215L725.997 359.582 723.29 362.289C722.9 362.68 722.9 363.312 723.29 363.703L725.997 366.41 725.997 367.582 723.29 370.289C722.9 370.68 722.9 371.312 723.29 371.703L725.997 374.41 725.997 376.996C725.997 377.238 726.085 377.472 726.245 377.655L729.745 381.655C729.943 381.88 730.219 381.996 730.497 381.996 730.728 381.996 730.959 381.917 731.148 381.755L734.648 378.755C734.87 378.565 734.997 378.288 734.997 377.996L734.997 357.204C739.743 355.372 742.997 350.662 742.997 345.496ZM730.497 347.866C729.119 347.866 727.997 346.745 727.997 345.366 727.997 343.988 729.119 342.866 730.497 342.866 731.876 342.866 732.997 343.988 732.997 345.366 732.997 346.745 731.876 347.866 730.497 347.866ZM730.497 340.866C728.016 340.866 725.997 342.885 725.997 345.366 725.997 347.848 728.016 349.866 730.497 349.866 732.979 349.866 734.997 347.848 734.997 345.366 734.997 342.885 732.979 340.866 730.497 340.866Z" fill="#FFFFFF" fill-rule="evenodd" fill-opacity="1"/></g></g></g></g></g></svg>