<svg width="82" height="80" xmlns="http://www.w3.org/2000/svg" xmlns:xlink="http://www.w3.org/1999/xlink" xml:space="preserve" overflow="hidden"><g transform="translate(-790 -124)"><g><g><g><g><path d="M791 124 871 124 871 204 791 204Z" fill="#8C4FFF" fill-rule="evenodd" fill-opacity="1"/><path d="M839.692 164.68C840.431 165.363 840.801 166.278 840.801 167.428 840.801 168.678 840.351 169.676 839.452 170.423 838.552 171.17 837.343 171.543 835.826 171.543 834.627 171.543 833.44 171.287 832.266 170.777L832.266 169.245C833.657 169.705 834.843 169.935 835.826 169.935 836.796 169.935 837.542 169.717 838.065 169.284 838.588 168.85 838.849 168.231 838.849 167.428 838.849 165.883 837.874 165.111 835.921 165.111 835.309 165.111 834.703 165.143 834.103 165.206L834.103 163.943 838.123 159.559 832.458 159.559 832.458 157.989 840.247 157.989 840.247 159.501 836.304 163.675C836.369 163.662 836.431 163.656 836.496 163.656L836.687 163.656C837.951 163.656 838.952 163.997 839.692 164.68M828.574 164.345C829.351 165.073 829.74 166.074 829.74 167.35 829.74 168.601 829.288 169.612 828.381 170.385 827.475 171.157 826.283 171.543 824.803 171.543 823.503 171.543 822.284 171.287 821.148 170.777L821.148 169.245C822.564 169.705 823.776 169.935 824.784 169.935 825.754 169.935 826.497 169.715 827.013 169.274 827.53 168.834 827.789 168.2 827.789 167.37 827.789 166.463 827.546 165.806 827.061 165.398 826.576 164.99 825.785 164.785 824.688 164.785 823.897 164.785 822.909 164.85 821.722 164.977L821.722 163.713 822.086 157.989 829.071 157.989 829.071 159.559 823.693 159.559 823.444 163.445C824.146 163.318 824.777 163.254 825.338 163.254 826.716 163.254 827.795 163.617 828.574 164.345M842.957 178.378C838.103 179.25 833.852 181.227 831 182.837 828.147 181.227 823.896 179.25 819.043 178.378 817.677 178.133 810.869 176.711 810.869 172.776 810.869 170.952 811.522 169.742 812.776 167.583 814.274 165 816.138 161.784 816.138 157.156 816.138 153.847 815.271 150.675 813.559 147.715 813.76 147.467 813.965 147.216 814.171 146.963 816.707 148.23 819.347 148.872 822.031 148.872 825.311 148.872 828.325 148.011 831 146.311 833.674 148.011 836.688 148.872 839.968 148.872 842.652 148.872 845.293 148.23 847.829 146.963 848.034 147.216 848.239 147.467 848.44 147.715 846.728 150.675 845.861 153.847 845.861 157.156 845.861 161.784 847.725 165 849.226 167.587 850.477 169.742 851.13 170.952 851.13 172.776 851.13 176.711 844.322 178.133 842.957 178.378M847.861 157.156C847.861 153.997 848.752 150.97 850.507 148.158 850.735 147.795 850.706 147.328 850.434 146.996 849.926 146.374 849.393 145.718 848.867 145.067 848.562 144.69 848.032 144.586 847.606 144.82 845.143 146.181 842.574 146.872 839.968 146.872 836.824 146.872 834.077 146.026 831.569 144.289 831.227 144.052 830.772 144.052 830.43 144.289 827.922 146.026 825.175 146.872 822.031 146.872 819.425 146.872 816.856 146.181 814.393 144.82 813.968 144.586 813.437 144.69 813.132 145.067 812.606 145.718 812.073 146.374 811.565 146.996 811.294 147.328 811.264 147.795 811.492 148.158 813.248 150.97 814.138 153.997 814.138 157.156 814.138 161.246 812.423 164.202 811.045 166.581 809.695 168.904 808.869 170.447 808.869 172.776 808.869 178.165 816.385 179.934 818.689 180.348 823.549 181.221 827.793 183.281 830.497 184.854 830.652 184.945 830.826 184.99 831 184.99 831.173 184.99 831.347 184.945 831.503 184.854 834.207 183.281 838.45 181.221 843.31 180.348 845.614 179.934 853.13 178.165 853.13 172.776 853.13 170.447 852.304 168.904 850.954 166.578 849.576 164.202 847.861 161.246 847.861 157.156M843.994 184.157C837.863 185.259 832.723 188.557 831 189.764 829.276 188.557 824.136 185.259 818.005 184.157 805.937 181.989 805 174.897 805 172.776 805 169.285 806.371 166.923 807.697 164.637 808.961 162.46 810.268 160.207 810.268 157.156 810.268 152.336 807.485 148.932 806.112 147.546 807.556 145.789 811.204 141.342 813.003 139.024 815.729 141.597 818.898 143 822.031 143 825.509 143 828.385 141.585 831 138.564 833.614 141.585 836.49 143 839.968 143 843.101 143 846.27 141.597 848.997 139.024 850.796 141.342 854.443 145.789 855.887 147.546 854.514 148.932 851.731 152.336 851.731 157.156 851.731 160.207 853.039 162.46 854.302 164.637 855.629 166.923 857 169.285 857 172.776 857 174.897 856.062 181.989 843.994 184.157M856.032 163.634C854.797 161.505 853.731 159.668 853.731 157.156 853.731 151.868 857.847 148.447 857.887 148.415 858.094 148.247 858.226 148.003 858.254 147.737 858.28 147.471 858.2 147.206 858.03 147 857.963 146.92 851.408 138.973 849.906 136.914 849.73 136.673 849.457 136.523 849.159 136.505 848.86 136.483 848.572 136.602 848.368 136.82 845.848 139.515 842.866 140.999 839.968 140.999 836.764 140.999 834.244 139.572 831.794 136.371 831.415 135.876 830.585 135.876 830.206 136.371 827.755 139.572 825.235 140.999 822.031 140.999 819.133 140.999 816.151 139.515 813.631 136.82 813.427 136.602 813.137 136.478 812.84 136.505 812.543 136.523 812.269 136.673 812.093 136.914 810.591 138.973 804.036 146.92 803.969 147 803.8 147.206 803.72 147.471 803.747 147.736 803.773 148.001 803.904 148.245 804.11 148.413 804.152 148.447 808.268 151.868 808.268 157.156 808.268 159.668 807.202 161.505 805.967 163.634 804.576 166.031 803 168.747 803 172.776 803 179.487 808.477 184.478 817.652 186.127 824.559 187.368 830.334 191.749 830.391 191.794 830.57 191.931 830.785 192 831 192 831.214 192 831.429 191.931 831.609 191.793 831.667 191.749 837.422 187.371 844.347 186.127 853.522 184.478 859 179.487 859 172.776 859 168.747 857.423 166.031 856.032 163.634" fill="#FFFFFF" fill-rule="evenodd" fill-opacity="1"/></g></g></g></g></g></svg>