<svg width="82" height="80" xmlns="http://www.w3.org/2000/svg" xmlns:xlink="http://www.w3.org/1999/xlink" xml:space="preserve" overflow="hidden"><g transform="translate(-1030 -124)"><g><g><g><g><path d="M1031 124 1111 124 1111 204 1031 204Z" fill="#C925D1" fill-rule="evenodd" fill-opacity="1"/><path d="M1061.98 149.248C1051.82 149.248 1045 146.34 1045 143.624 1045 140.909 1051.82 138 1061.98 138 1072.02 138 1078.01 140.86 1078.01 143.624 1078.01 146.389 1072.02 149.248 1061.98 149.248L1061.98 149.248ZM1077.41 164.731C1079.35 164.731 1081.29 164.948 1083.16 165.376L1083.61 163.426C1082.42 163.156 1081.22 162.974 1080 162.861L1080 143.955 1079.98 143.955C1079.99 143.844 1080.01 143.737 1080.01 143.624 1080.01 139.136 1072.6 136 1061.98 136 1052.55 136 1043 138.619 1043 143.624 1043 143.738 1043.03 143.844 1043.04 143.955L1043 143.955 1043 184.313C1043 187.193 1046.13 189.518 1051.81 190.859L1052.27 188.913C1047.79 187.853 1045 186.091 1045 184.313L1045 174.706C1046.3 175.751 1048.2 176.639 1050.65 177.319L1051.18 175.393C1047.31 174.317 1045 172.713 1045 171.101L1045 161.361C1048.07 163.896 1054.26 165.271 1060.42 165.526L1060.5 163.528C1050.8 163.126 1045 160.242 1045 157.687L1045 147.213C1048.28 149.869 1055.15 151.248 1061.98 151.248 1069.31 151.248 1075.11 149.753 1078 147.352L1078 162.748C1077.8 162.744 1077.61 162.731 1077.41 162.731 1067.06 162.731 1057.61 168.43 1052.75 177.602L1054.52 178.539C1059.03 170.022 1067.8 164.731 1077.41 164.731ZM1090.64 168.374C1089 167.398 1087.26 166.604 1085.46 166.014L1086.08 164.113C1088.03 164.75 1089.9 165.606 1091.66 166.657L1090.64 168.374ZM1080.79 189.955C1080.61 188.831 1080.15 187.804 1079.47 186.953L1090.81 176.232C1094.43 179.748 1096.68 184.761 1096.94 189.955L1080.79 189.955ZM1074.47 186.541C1076.56 186.541 1078.3 188.003 1078.75 189.955L1070.19 189.955C1070.64 188.003 1072.39 186.541 1074.47 186.541ZM1092.28 174.845 1095.95 171.371 1094.57 169.917 1077.99 185.6C1076.98 184.932 1075.77 184.541 1074.47 184.541 1071.28 184.541 1068.63 186.894 1068.16 189.955L1056.86 189.955C1057.38 179.191 1066.17 170.596 1076.9 170.596 1079.79 170.596 1082.57 171.194 1085.18 172.375L1086 170.554C1083.14 169.254 1080.07 168.596 1076.9 168.596 1064.74 168.596 1054.84 178.626 1054.84 190.955L1054.84 191.955 1098.96 191.955 1098.96 190.955C1098.96 184.909 1096.47 178.956 1092.28 174.845Z" fill="#FFFFFF" fill-rule="evenodd" fill-opacity="1"/></g></g></g></g></g></svg>